# xmcd CD database file
#
# Track frame offsets:
#	150
#	11437
#	23486
#	35071
#	47372
#	59387
#	71719
#	82519
#	94850
#	106830
#	119425
#	131168
#	143588
#	153679
#	163734
#	173786
#	183804
#	196226
#	206517
#	217475
#	227772
#	237449
#	248094
#	261171
#	271932
#	282552
#
# Disc length: 3906 seconds
#
# Revision: 0
# Processed by: cddbd v1.4PL0 Copyright (c) Steve Scherf et al.
# Submitted via: CDex 1.50beta9
#
DISCID=710f401a
DTITLE=Lightnin' Hopkins - Remember Me
DYEAR=2000
DGENRE=Blues
TTITLE0=I Love You Baby  
TTITLE1=Shine On Moon  
TTITLE2=Lightnin's Boogie  
TTITLE3=Lonesome In Your Home  
TTITLE4=Remember Me  
TTITLE5=Sittin' Here Thinkin'  
TTITLE6=Lightnin's Special  
TTITLE7=Please Don't Go Baby  
TTITLE8=Don't Think Cause You're Pretty  
TTITLE9=Life I Used To Live  
TTITLE10=Grandma's Boogie  
TTITLE11=My Baby's Gone  
TTITLE12=Early Mornin' Boogie  
TTITLE13=Sick Feeling Blues  
TTITLE14=Moving On Out Boogie  
TTITLE15=Hopkins' Sky Hop  
TTITLE16=Evil Hearted Woman  
TTITLE17=Don't Need No Job  
TTITLE18=Blues For My Cookie  
TTITLE19=Had A Gal Called Sal  
TTITLE20=They Wonder Who I Am  
TTITLE21=Nothin' But The Blues  
TTITLE22=That's All Right Baby  
TTITLE23=Finally Met My Baby  
TTITLE24=My Little Kewpie Doll  
TTITLE25=Wonder What Is Wrong With Me  
EXTD=YEAR: 2000
EXTT0=
EXTT1=
EXTT2=
EXTT3=
EXTT4=
EXTT5=
EXTT6=
EXTT7=
EXTT8=
EXTT9=
EXTT10=
EXTT11=
EXTT12=
EXTT13=
EXTT14=
EXTT15=
EXTT16=
EXTT17=
EXTT18=
EXTT19=
EXTT20=
EXTT21=
EXTT22=
EXTT23=
EXTT24=
EXTT25=
PLAYORDER=
